<svg id="Layer_1" xmlns="http://www.w3.org/2000/svg" viewBox="0 0 7130.7 3772.9"><style>.st0{fill:url(#XMLID_2_)}.st1{fill:url(#XMLID_3_)}.st2{fill:url(#SVGID_1_)}</style><linearGradient id="XMLID_2_" gradientUnits="userSpaceOnUse" x1="1465" y1="5040.739" x2="3516.137" y2="2116.778" gradientTransform="matrix(1 0 0 -1 0 6381.858)"><stop offset="0" stop-color="#22a7f0"/><stop offset="1" stop-color="#9b59b6"/></linearGradient><path id="XMLID_13_" class="st0" d="M3366.2 2950.4l-100.7-100.7c-434.4 248.3-964.3 173.5-1321.6-183.8l-129.1-129.1c-115.2-1.4-236.7-9.1-334.5-50.1l321.4 321.4c436.6 436.6 1107.9 499.2 1612.3 187.7-16.5-14.7-32.2-29.8-47.8-45.4z"/><linearGradient id="XMLID_3_" gradientUnits="userSpaceOnUse" x1="2272.253" y1="5607.021" x2="4323.39" y2="2683.06" gradientTransform="matrix(1 0 0 -1 0 6381.858)"><stop offset="0" stop-color="#22a7f0"/><stop offset="1" stop-color="#9b59b6"/></linearGradient><path id="XMLID_12_" class="st1" d="M2512.8 2097c-35-35-79.6-59.7-119.2-87.3-221.3 120-479.2 162.8-722.1 120.8-184.3-31.9-363.6-108.6-515.5-234.3 151.9-125.7 328.5-203.3 512.8-235.2 242.9-42.1 496.8-2.4 718.1 117.6 61.7 33.3 127.5 65.9 182.7 112 27 21.9 60.1 38.9 85.4 64.2l68.6 68.6 142.2 142.2 429.2 429.2 139.1 139.1 3.1 3.1 71.1 71.1c23 23 39.8 52.3 64 73.7 52.9 44.9 97.4 81.8 154.9 117.6 504.3 311.5 1165 245.3 1601.6-191.3l321.4-321.4c-97.9 41-219.3 48.6-334.5 50.1l-129.1 129.1c-357.3 357.3-900.6 418.7-1321.6 183.8-58.9-32.7-107.5-63.1-168.7-115.8l139.1-139.1 429.2-429.2c-1.7 1.7-21.3-44.7-45.2-68.6l-85.3-85.3-440.8 440.9-128 128-128-128-426.7-426.7-156.4-156.4 128-128 440.9-440.9-142.2-142.2-443.5 443.5-142.2 142.2c-32.4-24.5-100.4-77.7-157.3-112.9-201.7-124.3-426.5-185.3-656.4-189.9-106.1-2-218.1 3.2-321.9 26.8-232.7 52.3-458.7 163.6-639.7 344.5l-56.9 56.9 85.3 85.3c180.9 180.9 398.1 301.1 630.8 353.4 103.8 23.6 206.9 37.7 313 35.7 229.8-4.5 457.7-68.5 667-200.5l-46.3-46.4z"/><linearGradient id="SVGID_1_" gradientUnits="userSpaceOnUse" x1="2960.003" y1="6089.472" x2="5011.14" y2="3165.512" gradientTransform="matrix(1 0 0 -1 0 6381.858)"><stop offset="0" stop-color="#22a7f0"/><stop offset="1" stop-color="#9b59b6"/></linearGradient><path class="st2" d="M1915.5 1101.5c330.6-330.6 820.3-407.3 1225.2-230.9 214.5 107.8 318.4 181.6 521.8 384.9l59.3 59.3 426.7 426.7 142.2 142.2 71.1 71.1c23.9 23.9 41.2 53.8 66.6 75.7 52.3 44.4 104 88.3 160.9 123.6 201.7 124.3 428.3 190.7 658.1 195.2 106.1 2 204.8-14.8 308.6-38.4 232.7-52.3 445.4-175.2 626.3-356.1l85.3-85.3-56.9-56.9c-180.9-180.9-408.8-290.4-641.4-342.8-103.8-23.6-214-30.6-320.1-28.6-229.8 4.5-452.9 63.8-654.6 188.1-56.9 35.3-126.7 90.2-159.1 114.7l-142.2-142.2-429.3-429.2-139.1-139.1c32.7-24.2 109.8-83.1 168.7-115.8 421-235 964.3-173.5 1321.5 183.8l129.1 129.1c86.8 29.9 208.2 37.5 334.5 50.1l-321.4-321.5c-436.6-436.6-1115-492-1619.3-180.6-57.5 35.8-116.2 79.8-169.1 124.7-52.9-44.9-117-90.7-174.4-126.5-504.4-311.4-1184.6-254.2-1621.2 182.4l-321.4 321.4c126.3-12.5 247.8-20.2 334.5-50.1l129.1-129zm3547.1 560.3c184.3 31.9 361.8 110.4 513.7 236.1-151.9 125.7-329.4 204.2-513.7 236.1-242.9 42.1-497.2 2.8-718.5-117.2-61.7-33.3-120.6-72.8-175.8-118.9 55.2-46.1 114.1-85.6 175.8-118.9 221.3-120 475.5-159.3 718.5-117.2z"/></svg>